<?xml version="1.0" encoding="UTF-8" standalone="no"?>
<!DOCTYPE svg PUBLIC "-//W3C//DTD SVG 1.1//EN" "http://www.w3.org/Graphics/SVG/1.1/DTD/svg11.dtd">
<svg xmlns="http://www.w3.org/2000/svg" version="1.1" viewBox="0.00 0.00 150.00 150.00">
<path fill="#000000" d="
  M 62.64 36.59
  C 69.55 28.27 57.56 18.79 64.78 9.95
  C 65.95 8.52 67.60 6.36 69.75 7.49
  A 1.58 1.58 0.0 0 1 70.03 10.10
  L 67.95 11.84
  A 0.70 0.70 0.0 0 0 67.81 11.98
  C 63.91 16.82 67.51 22.45 68.16 26.56
  C 68.85 30.95 68.63 35.43 65.57 38.48
  A 1.74 1.74 0.0 0 1 63.05 38.40
  L 62.67 37.98
  A 1.08 1.06 44.1 0 1 62.64 36.59
  Z"
/>
<path fill="#000000" d="
  M 80.85 16.13
  A 1.97 1.83 -40.5 0 1 80.52 19.07
  C 77.11 21.47 79.47 25.39 80.08 28.81
  C 80.48 31.13 80.07 35.95 77.30 36.60
  A 1.79 1.69 11.6 0 1 75.41 33.91
  C 77.87 30.88 75.61 26.90 75.18 23.36
  Q 74.54 18.09 78.87 16.02
  Q 80.12 15.43 80.85 16.13
  Z"
/>
<path fill="#000000" d="
  M 56.19 20.06
  A 1.97 1.83 -40.9 0 1 55.87 22.99
  C 52.49 25.40 54.87 29.30 55.49 32.71
  C 55.91 35.02 55.53 39.83 52.77 40.49
  A 1.78 1.68 11.2 0 1 50.87 37.82
  C 53.30 34.78 51.03 30.83 50.58 27.30
  Q 49.91 22.05 54.21 19.96
  Q 55.45 19.36 56.19 20.06
  Z"
/>
<path fill="#000000" d="
  M 126.10 107.26
  L 132.25 107.82
  A 1.56 1.55 1.5 0 1 133.67 109.31
  L 133.94 116.38
  A 0.86 0.85 4.2 0 0 134.65 117.19
  L 143.19 118.69
  A 1.88 1.88 0.0 0 1 144.75 120.47
  L 145.19 132.16
  A 0.92 0.91 68.1 0 1 144.88 132.89
  L 130.25 146.00
  A 1.98 1.98 0.0 0 1 128.41 146.44
  L 87.69 135.35
  A 7.89 7.81 49.8 0 0 84.89 135.10
  Q 59.77 137.37 34.34 132.85
  C 28.42 131.79 19.02 129.22 14.23 125.02
  Q 11.61 122.72 11.49 119.28
  Q 10.37 85.68 8.74 60.76
  Q 8.62 58.81 9.10 57.35
  C 11.75 49.44 33.57 45.89 41.01 45.00
  Q 65.41 42.08 90.76 44.51
  Q 96.93 45.11 104.87 46.65
  C 112.01 48.05 120.23 50.06 125.34 54.92
  C 127.03 56.54 127.55 58.17 127.38 60.60
  Q 125.75 83.16 125.51 106.61
  A 0.65 0.64 -87.6 0 0 126.10 107.26
  Z
  M 67.83 49.33
  C 84.61 49.29 100.39 50.59 116.54 55.41
  A 0.62 0.58 -22.7 0 1 116.67 55.46
  L 122.91 58.68
  A 0.36 0.36 0.0 0 0 123.34 58.12
  C 119.80 54.22 113.24 52.22 108.04 51.08
  C 94.46 48.12 81.41 47.06 67.83 47.09
  C 54.24 47.12 41.20 48.23 27.63 51.26
  C 22.43 52.42 15.88 54.45 12.36 58.36
  A 0.36 0.36 0.0 0 0 12.79 58.92
  L 19.02 55.67
  A 0.62 0.58 22.5 0 1 19.14 55.63
  C 35.28 50.73 51.05 49.36 67.83 49.33
  Z
  M 14.77 62.34
  Q 14.77 62.46 14.81 62.58
  Q 14.86 62.72 14.95 62.77
  Q 18.35 64.79 22.24 66.01
  C 36.75 70.55 52.41 71.73 68.15 71.72
  C 83.88 71.70 99.54 70.49 114.04 65.91
  Q 117.93 64.69 121.32 62.66
  Q 121.41 62.61 121.46 62.47
  Q 121.50 62.35 121.50 62.23
  Q 121.50 62.11 121.46 61.99
  Q 121.41 61.85 121.32 61.80
  Q 117.92 59.78 114.03 58.57
  C 99.52 54.02 83.87 52.84 68.13 52.85
  C 52.39 52.87 36.74 54.08 22.24 58.66
  Q 18.35 59.88 14.95 61.91
  Q 14.86 61.96 14.81 62.10
  Q 14.77 62.22 14.77 62.34
  Z
  M 13.1024 66.0810
  A 2.17 0.71 -141.9 0 0 14.3719 67.9787
  A 2.17 0.71 -141.9 0 0 16.5176 68.7590
  A 2.17 0.71 -141.9 0 0 15.2481 66.8613
  A 2.17 0.71 -141.9 0 0 13.1024 66.0810
  Z
  M 123.3418 66.4265
  A 3.64 0.89 -29.7 0 0 119.7390 67.4569
  A 3.64 0.89 -29.7 0 0 117.0182 70.0335
  A 3.64 0.89 -29.7 0 0 120.6210 69.0031
  A 3.64 0.89 -29.7 0 0 123.3418 66.4265
  Z
  M 26.44 89.67
  A 0.32 0.32 0.0 0 0 26.84 89.34
  L 26.15 71.14
  A 0.32 0.32 0.0 0 0 25.91 70.85
  L 20.61 69.40
  A 0.32 0.32 0.0 0 0 20.21 69.73
  L 20.90 87.93
  A 0.32 0.32 0.0 0 0 21.14 88.22
  L 26.44 89.67
  Z
  M 107.95 71.35
  A 0.34 0.34 0.0 0 0 107.69 71.69
  L 108.36 89.46
  A 0.34 0.34 0.0 0 0 108.78 89.78
  L 114.15 88.51
  A 0.34 0.34 0.0 0 0 114.41 88.17
  L 113.74 70.40
  A 0.34 0.34 0.0 0 0 113.32 70.08
  L 107.95 71.35
  Z
  M 16.30 72.18
  L 13.04 72.40
  A 0.02 0.02 0.0 0 0 13.03 72.42
  L 13.53 79.79
  A 6.39 0.71 86.1 0 0 14.67 86.12
  L 16.55 85.99
  A 6.39 0.71 86.1 0 0 16.82 79.57
  L 16.32 72.19
  A 0.02 0.02 0.0 0 0 16.30 72.18
  Z
  M 36.16 91.86
  A 0.41 0.41 0.0 0 0 36.64 91.44
  L 35.95 73.39
  A 0.41 0.41 0.0 0 0 35.61 73.00
  L 30.37 72.08
  A 0.41 0.41 0.0 0 0 29.89 72.50
  L 30.58 90.56
  A 0.41 0.41 0.0 0 0 30.92 90.95
  L 36.16 91.86
  Z
  M 98.42 72.92
  A 0.41 0.41 0.0 0 0 98.03 73.35
  L 98.70 91.27
  A 0.41 0.41 0.0 0 0 99.13 91.66
  L 104.25 91.48
  A 0.41 0.41 0.0 0 0 104.64 91.05
  L 103.96 73.13
  A 0.41 0.41 0.0 0 0 103.53 72.74
  L 98.42 72.92
  Z
  M 117.87 74.47
  A 0.51 0.51 0.0 0 0 117.58 74.95
  L 118.00 86.03
  A 0.51 0.51 0.0 0 0 118.73 86.47
  L 121.77 85.00
  A 0.51 0.51 0.0 0 0 122.06 84.58
  L 123.12 72.78
  A 0.51 0.51 0.0 0 0 122.39 72.28
  L 117.87 74.47
  Z
  M 46.00 93.10
  A 0.31 0.31 0.0 0 0 46.34 92.78
  L 45.63 74.39
  A 0.31 0.31 0.0 0 0 45.35 74.10
  L 39.93 73.61
  A 0.31 0.31 0.0 0 0 39.59 73.93
  L 40.29 92.32
  A 0.31 0.31 0.0 0 0 40.57 92.61
  L 46.00 93.10
  Z
  M 94.2750 74.1616
  A 0.26 0.26 0.0 0 0 94.0052 73.9118
  L 88.5293 74.1221
  A 0.26 0.26 0.0 0 0 88.2794 74.3919
  L 88.9850 92.7584
  A 0.26 0.26 0.0 0 0 89.2548 93.0082
  L 94.7307 92.7979
  A 0.26 0.26 0.0 0 0 94.9806 92.5281
  L 94.2750 74.1616
  Z
  M 55.75 93.97
  A 0.31 0.31 0.0 0 0 56.09 93.65
  L 55.39 75.34
  A 0.31 0.31 0.0 0 0 55.11 75.05
  L 49.71 74.56
  A 0.31 0.31 0.0 0 0 49.37 74.88
  L 50.07 93.19
  A 0.31 0.31 0.0 0 0 50.35 93.48
  L 55.75 93.97
  Z
  M 84.6743 75.0129
  A 0.27 0.27 0.0 0 0 84.3955 74.7520
  L 78.7786 74.9384
  A 0.27 0.27 0.0 0 0 78.5177 75.2172
  L 79.1257 93.5471
  A 0.27 0.27 0.0 0 0 79.4045 93.8080
  L 85.0214 93.6216
  A 0.27 0.27 0.0 0 0 85.2823 93.3428
  L 84.6743 75.0129
  Z
  M 65.1646 75.4452
  A 0.37 0.37 0.0 0 0 64.7826 75.0877
  L 59.5055 75.2628
  A 0.37 0.37 0.0 0 0 59.1480 75.6448
  L 59.7554 93.9548
  A 0.37 0.37 0.0 0 0 60.1374 94.3123
  L 65.4145 94.1372
  A 0.37 0.37 0.0 0 0 65.7720 93.7552
  L 65.1646 75.4452
  Z
  M 74.9267 75.3788
  A 0.27 0.27 0.0 0 0 74.6475 75.1184
  L 69.0709 75.3131
  A 0.27 0.27 0.0 0 0 68.8104 75.5924
  L 69.4533 94.0012
  A 0.27 0.27 0.0 0 0 69.7325 94.2616
  L 75.3091 94.0669
  A 0.27 0.27 0.0 0 0 75.5696 93.7876
  L 74.9267 75.3788
  Z
  M 118.61 90.65
  A 0.61 0.61 0.0 0 0 118.27 91.22
  L 118.88 107.46
  A 0.61 0.61 0.0 0 0 119.90 107.90
  L 121.65 106.33
  A 0.61 0.61 0.0 0 0 121.85 105.88
  L 121.85 90.04
  A 0.61 0.61 0.0 0 0 120.97 89.50
  L 118.61 90.65
  Z
  M 15.07 89.46
  A 0.65 0.65 0.0 0 0 14.09 90.04
  L 15.06 115.27
  A 0.65 0.65 0.0 0 0 15.38 115.81
  L 17.39 116.97
  A 0.65 0.65 0.0 0 0 18.37 116.38
  L 17.40 91.15
  A 0.65 0.65 0.0 0 0 17.08 90.61
  L 15.07 89.46
  Z
  M 21.68 92.29
  A 0.39 0.39 0.0 0 0 21.19 92.68
  L 22.18 118.62
  A 0.39 0.39 0.0 0 0 22.47 118.99
  L 27.61 120.39
  A 0.39 0.39 0.0 0 0 28.10 120.00
  L 27.11 94.06
  A 0.39 0.39 0.0 0 0 26.82 93.69
  L 21.68 92.29
  Z
  M 108.81 93.69
  A 0.31 0.31 0.0 0 0 108.57 94.01
  L 109.26 112.21
  A 0.31 0.31 0.0 0 0 109.71 112.47
  L 115.00 109.90
  A 0.31 0.31 0.0 0 0 115.17 109.61
  L 114.53 92.73
  A 0.31 0.31 0.0 0 0 114.15 92.44
  L 108.81 93.69
  Z
  M 31.23 94.69
  A 0.38 0.38 0.0 0 0 30.79 95.08
  L 31.78 121.10
  A 0.38 0.38 0.0 0 0 32.09 121.46
  L 37.44 122.40
  A 0.38 0.38 0.0 0 0 37.88 122.01
  L 36.89 95.99
  A 0.38 0.38 0.0 0 0 36.58 95.63
  L 31.23 94.69
  Z
  M 99.33 95.34
  A 0.47 0.47 0.0 0 0 98.88 95.83
  L 99.67 116.74
  A 0.47 0.47 0.0 0 0 100.35 117.14
  L 105.32 114.72
  A 0.47 0.47 0.0 0 0 105.59 114.28
  L 104.88 95.61
  A 0.47 0.47 0.0 0 0 104.39 95.16
  L 99.33 95.34
  Z
  M 41.09 96.17
  A 0.54 0.54 0.0 0 0 40.50 96.73
  L 41.49 122.70
  A 0.54 0.54 0.0 0 0 41.98 123.21
  L 47.03 123.67
  A 0.54 0.54 0.0 0 0 47.62 123.12
  L 46.63 97.14
  A 0.54 0.54 0.0 0 0 46.14 96.63
  L 41.09 96.17
  Z
  M 89.60 96.62
  A 0.54 0.54 0.0 0 0 89.08 97.18
  L 90.05 122.75
  A 0.54 0.54 0.0 0 0 90.61 123.27
  L 95.61 123.08
  A 0.54 0.54 0.0 0 0 96.13 122.52
  L 95.16 96.95
  A 0.54 0.54 0.0 0 0 94.60 96.43
  L 89.60 96.62
  Z
  M 56.95 124.35
  A 0.35 0.35 0.0 0 0 57.30 123.99
  L 56.29 97.69
  A 0.35 0.35 0.0 0 0 55.94 97.35
  L 50.62 97.35
  A 0.35 0.35 0.0 0 0 50.27 97.71
  L 51.28 124.01
  A 0.35 0.35 0.0 0 0 51.63 124.35
  L 56.95 124.35
  Z
  M 85.4238 97.5981
  A 0.37 0.37 0.0 0 0 85.0393 97.2433
  L 79.6836 97.4584
  A 0.37 0.37 0.0 0 0 79.3287 97.8429
  L 80.3762 123.9219
  A 0.37 0.37 0.0 0 0 80.7607 124.2767
  L 86.1164 124.0616
  A 0.37 0.37 0.0 0 0 86.4713 123.6771
  L 85.4238 97.5981
  Z
  M 65.9269 98.0860
  A 0.45 0.45 0.0 0 0 65.4599 97.6536
  L 60.4436 97.8463
  A 0.45 0.45 0.0 0 0 60.0112 98.3132
  L 61.0131 124.3940
  A 0.45 0.45 0.0 0 0 61.4801 124.8264
  L 66.4964 124.6337
  A 0.45 0.45 0.0 0 0 66.9288 124.1668
  L 65.9269 98.0860
  Z
  M 75.6824 98.1092
  A 0.50 0.50 0.0 0 0 75.1644 97.6278
  L 70.1877 97.8103
  A 0.50 0.50 0.0 0 0 69.7064 98.3283
  L 70.6576 124.2708
  A 0.50 0.50 0.0 0 0 71.1756 124.7522
  L 76.1523 124.5697
  A 0.50 0.50 0.0 0 0 76.6336 124.0517
  L 75.6824 98.1092
  Z
  M 122.32 110.61
  A 0.33 0.33 0.0 0 0 122.15 110.64
  L 105.58 118.69
  A 0.33 0.33 0.0 0 0 105.69 119.32
  L 114.97 120.16
  A 0.33 0.33 0.0 0 1 115.27 120.48
  L 115.54 127.54
  A 0.33 0.33 0.0 0 0 116.05 127.80
  L 130.43 118.19
  A 0.33 0.33 0.0 0 0 130.57 117.91
  L 130.33 111.62
  A 0.33 0.33 0.0 0 0 130.03 111.30
  L 122.32 110.61
  Z
  M 15.73 120.20
  A 0.36 0.36 0.0 0 0 15.33 120.78
  Q 18.51 124.18 22.42 125.61
  Q 34.86 130.17 49.25 131.26
  C 69.69 132.79 91.27 132.76 110.91 126.80
  A 1.58 1.58 0.0 0 0 112.00 124.94
  L 111.98 124.84
  A 1.46 1.45 -13.2 0 0 110.21 123.75
  Q 95.73 127.36 78.82 128.10
  Q 57.63 129.02 38.70 126.39
  Q 26.60 124.71 15.73 120.20
  Z
  M 133.41 120.81
  A 0.45 0.45 0.0 0 0 133.08 120.88
  L 120.91 129.02
  A 0.45 0.45 0.0 0 0 121.12 129.84
  L 129.30 130.58
  A 0.45 0.45 0.0 0 1 129.71 131.02
  L 130.05 140.12
  A 0.45 0.45 0.0 0 0 130.80 140.44
  L 141.33 131.00
  A 0.45 0.45 0.0 0 0 141.48 130.65
  L 141.17 122.53
  A 0.45 0.45 0.0 0 0 140.80 122.11
  L 133.41 120.81
  Z
  M 97.76 133.88
  A 0.21 0.21 0.0 0 0 97.75 134.28
  L 126.22 142.03
  A 0.20 0.20 0.0 0 0 126.48 141.83
  L 126.19 134.15
  A 0.40 0.39 87.8 0 0 125.79 133.77
  Q 121.99 133.81 115.07 132.92
  Q 113.10 132.67 112.90 130.89
  A 0.50 0.50 0.0 0 0 112.29 130.46
  L 97.76 133.88
  Z"
/>
<path fill="#000000" d="
  M 69.35 56.57
  C 72.36 56.60 74.75 58.02 76.28 60.52
  C 77.33 62.23 76.71 63.39 74.95 64.10
  A 0.78 0.77 -28.7 0 1 74.04 63.84
  C 72.64 61.91 71.85 60.20 69.32 60.17
  C 66.78 60.15 65.96 61.84 64.52 63.74
  A 0.78 0.77 29.9 0 1 63.60 63.98
  C 61.86 63.24 61.26 62.07 62.35 60.38
  C 63.93 57.91 66.35 56.54 69.35 56.57
  Z"
/>
<ellipse fill="#000000" cx="0.00" cy="0.00" transform="translate(36.89,61.60) rotate(-2.3)" rx="3.48" ry="3.15"/>
<path fill="#000000" d="
  M 86.19 58.80
  C 88.74 58.80 93.28 61.91 91.02 65.03
  A 1.57 1.57 0.0 0 1 88.34 64.78
  C 87.85 63.77 87.59 62.47 86.19 62.47
  C 84.78 62.47 84.52 63.77 84.04 64.78
  A 1.57 1.57 0.0 0 1 81.36 65.03
  C 79.09 61.91 83.63 58.80 86.19 58.80
  Z"
/>
<path fill="#000000" d="
  M 50.19 60.55
  C 53.27 60.53 55.37 62.08 56.27 64.98
  Q 56.70 66.40 55.71 67.43
  A 1.62 1.56 -31.3 0 1 53.01 66.83
  Q 52.26 64.11 50.22 64.12
  Q 48.19 64.14 47.48 66.88
  A 1.62 1.56 30.4 0 1 44.79 67.52
  Q 43.79 66.51 44.20 65.09
  C 45.04 62.16 47.12 60.58 50.19 60.55
  Z"
/>
<ellipse fill="#000000" cx="0.00" cy="0.00" transform="translate(98.01,65.35) rotate(-1.5)" rx="3.45" ry="3.07"/>
</svg>
