<?xml version="1.0" encoding="UTF-8" standalone="no"?>
<!DOCTYPE svg PUBLIC "-//W3C//DTD SVG 1.1//EN" "http://www.w3.org/Graphics/SVG/1.1/DTD/svg11.dtd">
<svg xmlns="http://www.w3.org/2000/svg" version="1.1" viewBox="0.00 0.00 60.00 60.00">
<path fill="#000000" d="
  M 33.48 14.47
  C 27.91 17.71 26.62 23.69 28.90 29.78
  A 1.19 1.19 0.0 0 1 28.12 31.34
  L 28.08 31.36
  A 1.52 1.51 69.1 0 1 26.29 30.56
  C 23.01 23.70 25.64 15.62 32.01 11.93
  C 38.38 8.23 46.69 9.97 51.02 16.23
  A 1.52 1.51 50.7 0 1 50.82 18.18
  L 50.78 18.21
  A 1.19 1.19 0.0 0 1 49.04 18.11
  C 44.89 13.10 39.06 11.24 33.48 14.47
  Z"
/>
<path fill="#000000" d="
  M 19.32 36.18
  C 24.91 39.38 30.71 37.49 34.83 32.46
  A 1.19 1.19 0.0 0 1 36.57 32.35
  L 36.61 32.39
  A 1.51 1.51 0.0 0 1 36.82 34.33
  C 32.54 40.60 24.25 42.38 17.87 38.74
  C 11.48 35.09 8.82 27.04 12.05 20.17
  A 1.51 1.51 0.0 0 1 13.83 19.36
  L 13.87 19.38
  A 1.19 1.19 0.0 0 1 14.66 20.94
  C 12.42 27.03 13.74 32.99 19.32 36.18
  Z"
/>
<path fill="#000000" d="
  M 47.94 37.57
  C 47.94 44.94 42.26 51.27 34.67 51.87
  A 1.52 1.52 0.0 0 1 33.08 50.73
  L 33.07 50.68
  A 1.19 1.19 0.0 0 1 34.03 49.22
  C 40.46 48.13 44.99 44.02 44.99 37.57
  C 44.99 31.11 40.45 27.00 34.03 25.92
  A 1.19 1.19 0.0 0 1 33.07 24.46
  L 33.08 24.41
  A 1.52 1.52 0.0 0 1 34.66 23.26
  C 42.25 23.86 47.94 30.19 47.94 37.57
  Z"
/>
</svg>
