<svg id="Layer_2" data-name="Layer 2" xmlns="http://www.w3.org/2000/svg" viewBox="0 0 128 128"><title>GONG</title><path d="M90.888,75.387a1.756,1.756,0,0,0-1.855,1.639A22.683,22.683,0,0,1,68.071,98.179a1.75,1.75,0,0,0,.122,3.5c.042,0,.083,0,.126,0A26.2,26.2,0,0,0,92.526,77.242,1.751,1.751,0,0,0,90.888,75.387Z"/><path d="M100.966,45.166C92.1,44.181,87.3,39.39,86.318,30.519a1.75,1.75,0,0,0-3.479,0,18.5,18.5,0,0,1-2.643,8.1c-3.485-4.715-6.944-9.837-10.42-15.449l-1.893-3.055a1.751,1.751,0,0,0-2.976,0L62.6,23.839A184.7,184.7,0,0,1,41.3,52.355a34.127,34.127,0,0,0-6.668,10.565h0a1.743,1.743,0,0,0-2.408,1.421c-.738,6.641-4.174,10.076-10.813,10.813a1.75,1.75,0,0,0,0,3.479c6.64.738,10.076,4.174,10.814,10.814a1.747,1.747,0,0,0,3.264.658A34.184,34.184,0,0,0,43.1,100.572a33.841,33.841,0,0,0,23.263,9.167c.835,0,1.677-.029,2.521-.089A34.177,34.177,0,0,0,91.513,52.378l-.056-.063a17.251,17.251,0,0,1,9.51-3.671,1.75,1.75,0,0,0,0-3.479Zm-67,37.684a13.068,13.068,0,0,0-5.955-5.955,13.061,13.061,0,0,0,5.955-5.954,13.058,13.058,0,0,0,5.954,5.954A13.065,13.065,0,0,0,33.964,82.85Zm63.053-5.327a30.669,30.669,0,0,1-59.955,6.972c1.664-3.427,4.74-5.337,9.455-5.861a1.75,1.75,0,0,0,0-3.479c-5.18-.575-8.4-2.8-9.922-6.9a30.574,30.574,0,0,1,7.274-13.521,188.144,188.144,0,0,0,21.707-29.05l.82-1.324.4.653c3.684,5.946,7.351,11.364,11.054,16.33a17.048,17.048,0,0,1-9.663,3.824,1.75,1.75,0,0,0,0,3.479c8.871.986,13.662,5.777,14.647,14.648a1.75,1.75,0,0,0,3.479,0,18.358,18.358,0,0,1,2.787-8.353A30.454,30.454,0,0,1,97.017,77.522Zm-12.438-21.6a16.45,16.45,0,0,0-9.017-9.018,16.447,16.447,0,0,0,9.017-9.017A16.446,16.446,0,0,0,93.6,46.905,16.451,16.451,0,0,0,84.579,55.923Z"/><path d="M26.638,36.526c4.644.517,7.046,2.919,7.562,7.562a1.75,1.75,0,0,0,3.479,0c.516-4.643,2.919-7.046,7.562-7.562a1.75,1.75,0,0,0,0-3.479c-4.643-.516-7.046-2.919-7.562-7.562a1.75,1.75,0,0,0-3.479,0c-.516,4.644-2.918,7.046-7.562,7.562a1.75,1.75,0,0,0,0,3.479Zm9.3-5.156a9.908,9.908,0,0,0,3.417,3.417A9.913,9.913,0,0,0,35.939,38.2a9.9,9.9,0,0,0-3.417-3.416A9.9,9.9,0,0,0,35.939,31.37Z"/></svg>