<?xml version="1.0" encoding="UTF-8" standalone="no"?>
<!DOCTYPE svg PUBLIC "-//W3C//DTD SVG 1.1//EN" "http://www.w3.org/Graphics/SVG/1.1/DTD/svg11.dtd">
<svg xmlns="http://www.w3.org/2000/svg" version="1.1" viewBox="0.00 0.00 330.00 330.00">
<rect fill="#000000" x="-5.53" y="-116.26" transform="translate(78.56,120.48) rotate(-12.9)" width="11.06" height="232.52" rx="0.26"/>
<path fill="#000000" d="
  M 166.99 251.67
  Q 164.25 252.50 152.71 256.74
  Q 142.34 260.55 138.47 261.85
  Q 106.39 272.55 55.94 289.69
  A 0.87 0.87 0.0 0 1 54.80 289.00
  L 53.21 278.24
  A 1.09 1.07 63.6 0 1 53.52 277.29
  L 77.26 253.54
  A 4.75 4.73 15.8 0 1 79.52 252.28
  Q 86.85 250.50 90.45 249.37
  C 98.35 246.89 107.66 244.95 114.20 242.64
  C 117.85 241.35 119.61 241.47 123.22 240.40
  Q 140.16 235.37 144.97 233.65
  A 1.63 1.60 -45.6 0 1 145.99 233.63
  L 164.98 239.71
  A 0.89 0.89 0.0 0 1 165.59 240.43
  L 167.21 251.32
  A 0.32 0.32 0.0 0 1 166.99 251.67
  Z"
/>
<path fill="#000000" d="
  M 273.64 290.78
  Q 273.70 290.80 273.72 290.81
  A 0.14 0.01 18.7 0 0 273.85 290.84
  Q 277.88 288.34 281.86 287.86
  A 2.76 2.32 -11.1 0 1 284.73 289.45
  Q 285.19 290.98 284.42 292.98
  C 280.09 304.31 265.72 306.34 254.49 306.58
  Q 242.78 306.82 230.00 305.64
  C 225.67 305.24 218.97 305.64 215.24 308.60
  A 0.89 0.89 0.0 0 0 215.79 310.18
  C 219.57 310.19 227.37 309.61 224.36 316.39
  Q 222.12 321.41 216.10 322.62
  Q 208.37 324.17 199.24 323.72
  Q 189.08 323.23 167.25 321.87
  Q 156.92 321.23 149.89 322.63
  Q 139.75 324.66 134.21 325.35
  Q 123.79 326.65 112.25 325.23
  Q 94.33 323.03 79.51 317.74
  C 71.26 314.80 63.84 309.80 59.63 301.91
  A 0.95 0.94 66.4 0 1 60.15 300.57
  L 171.66 262.21
  A 1.62 1.61 -34.4 0 1 173.23 262.50
  C 180.04 268.20 187.20 265.71 194.85 263.12
  Q 199.25 261.63 205.00 262.22
  Q 209.62 262.69 222.75 265.04
  Q 230.95 266.51 243.75 266.74
  Q 248.74 266.83 254.52 269.92
  C 257.50 271.52 260.42 274.92 262.32 276.81
  A 4.83 4.79 -23.0 0 0 265.77 278.19
  Q 269.90 278.13 275.85 276.38
  C 277.97 275.76 280.41 275.54 282.41 276.46
  A 2.40 1.79 20.9 0 1 283.87 278.76
  Q 283.38 280.70 281.84 282.34
  Q 277.85 286.58 275.77 289.00
  A 1.29 1.05 -81.9 0 1 275.50 289.25
  L 273.68 290.46
  A 0.21 0.15 -46.3 0 0 273.64 290.78
  Z"
/>
</svg>
