<?xml version="1.0" encoding="UTF-8" standalone="no"?>
<!DOCTYPE svg PUBLIC "-//W3C//DTD SVG 1.1//EN" "http://www.w3.org/Graphics/SVG/1.1/DTD/svg11.dtd">
<svg xmlns="http://www.w3.org/2000/svg" version="1.1" viewBox="0.00 0.00 60.00 60.00">
<path fill="#000000" d="
  M 28.81 11.64
  C 32.43 10.05 37.24 9.87 40.80 11.97
  A 1.46 1.43 42.2 0 1 40.94 14.39
  Q 40.64 14.59 40.03 14.40
  Q 34.09 12.43 29.96 14.24
  Q 25.83 16.06 23.27 21.78
  Q 23.00 22.36 22.65 22.44
  A 1.46 1.43 -89.7 0 1 20.96 20.70
  C 21.81 16.67 25.19 13.23 28.81 11.64
  Z"
/>
<path fill="#000000" d="
  M 11.97 26.30
  C 11.70 22.33 13.18 17.70 16.39 15.06
  A 1.47 1.44 -27.9 0 1 18.73 15.76
  Q 18.82 16.11 18.42 16.62
  Q 14.52 21.57 14.83 26.10
  Q 15.13 30.64 19.67 35.03
  Q 20.13 35.48 20.08 35.84
  A 1.47 1.44 20.2 0 1 17.86 36.85
  C 14.33 34.66 12.23 30.28 11.97 26.30
  Z"
/>
<path fill="#000000" d="
  M 49.27 23.23
  C 51.74 26.36 53.12 31.02 51.97 35.02
  A 1.47 1.45 -62.3 0 1 49.64 35.76
  Q 49.37 35.52 49.41 34.88
  Q 49.83 28.58 47.02 25.00
  Q 44.20 21.43 37.97 20.37
  Q 37.34 20.25 37.17 19.93
  A 1.47 1.45 -14.2 0 1 38.44 17.84
  C 42.60 17.66 46.80 20.09 49.27 23.23
  Z"
/>
<path fill="#000000" d="
  M 43.51 46.40
  C 41.12 49.62 36.96 52.19 32.77 52.12
  A 1.48 1.45 12.6 0 1 31.44 50.05
  Q 31.60 49.72 32.23 49.59
  Q 38.46 48.35 41.19 44.68
  Q 43.92 41.01 43.32 34.68
  Q 43.26 34.04 43.53 33.79
  A 1.48 1.45 60.7 0 1 45.89 34.47
  C 47.16 38.46 45.90 43.18 43.51 46.40
  Z"
/>
<path fill="#000000" d="
  M 20.07 44.42
  Q 24.33 46.12 30.30 43.90
  Q 30.91 43.68 31.22 43.88
  A 1.48 1.46 -44.2 0 1 31.17 46.34
  C 27.63 48.60 22.73 48.60 19.00 47.11
  C 15.26 45.62 11.71 42.26 10.69 38.19
  A 1.48 1.46 87.7 0 1 12.35 36.36
  Q 12.71 36.43 13.00 37.01
  Q 15.81 42.73 20.07 44.42
  Z"
/>
</svg>
