<?xml version="1.0" encoding="UTF-8" standalone="no"?>
<!DOCTYPE svg PUBLIC "-//W3C//DTD SVG 1.1//EN" "http://www.w3.org/Graphics/SVG/1.1/DTD/svg11.dtd">
<svg xmlns="http://www.w3.org/2000/svg" version="1.1" viewBox="0.00 0.00 60.00 60.00">
<path fill="#000000" d="
  M 53.1100 20.7814
  A 22.10 9.81 -0.1 0 1 31.0271 30.6300
  A 22.10 9.81 -0.1 0 1 8.9100 20.8586
  A 22.10 9.81 -0.1 0 1 30.9929 11.0100
  A 22.10 9.81 -0.1 0 1 53.1100 20.7814
  Z
  M 45.21 25.05
  Q 48.03 23.69 49.28 22.10
  A 2.05 2.04 48.5 0 0 49.42 19.78
  C 48.65 18.52 46.37 17.04 45.03 16.58
  Q 32.76 12.36 19.55 15.77
  C 17.45 16.31 13.16 17.98 12.44 20.15
  A 2.79 2.33 30.0 0 0 13.46 22.92
  C 18.22 26.70 26.39 27.45 32.03 27.38
  Q 36.96 27.33 40.98 25.05
  A 1.28 1.27 -41.3 0 0 41.12 22.92
  C 38.16 20.70 34.96 20.49 30.80 20.30
  A 1.40 1.39 3.0 0 1 29.46 18.82
  L 29.46 18.76
  A 1.54 1.54 0.0 0 1 30.93 17.31
  C 35.00 17.13 45.78 18.70 44.68 24.64
  A 0.38 0.37 82.4 0 0 45.21 25.05
  Z"
/>
<path fill="#000000" d="
  M 31.02 38.64
  Q 37.05 38.63 41.87 36.92
  Q 44.93 35.83 44.68 33.34
  A 1.19 1.19 0.0 0 1 45.98 32.03
  L 46.07 32.03
  A 1.80 1.79 -0.6 0 1 47.68 33.60
  C 48.56 40.73 35.53 41.69 31.03 41.70
  C 26.53 41.71 13.49 40.79 14.34 33.66
  A 1.80 1.79 0.4 0 1 15.95 32.09
  L 16.04 32.09
  A 1.19 1.19 0.0 0 1 17.34 33.39
  Q 17.10 35.88 20.16 36.96
  Q 24.99 38.65 31.02 38.64
  Z"
/>
<path fill="#000000" d="
  M 31.03 47.89
  C 34.10 47.88 37.42 47.60 39.25 44.83
  A 1.31 1.31 0.0 0 1 41.65 45.56
  C 41.64 50.16 34.47 50.73 31.04 50.74
  C 27.61 50.75 20.43 50.21 20.40 45.61
  A 1.31 1.31 0.0 0 1 22.80 44.87
  C 24.64 47.63 27.96 47.89 31.03 47.89
  Z"
/>
</svg>
