<?xml version="1.0" encoding="UTF-8" standalone="no"?>
<!DOCTYPE svg PUBLIC "-//W3C//DTD SVG 1.1//EN" "http://www.w3.org/Graphics/SVG/1.1/DTD/svg11.dtd">
<svg xmlns="http://www.w3.org/2000/svg" version="1.1" viewBox="0.00 0.00 60.00 60.00">
<path fill="#000000" d="
  M 51.88 44.84
  A 8.99 8.99 0.0 0 1 42.89 53.83
  L 19.13 53.83
  A 8.99 8.99 0.0 0 1 10.14 44.84
  L 10.14 19.16
  A 8.99 8.99 0.0 0 1 19.13 10.17
  L 42.89 10.17
  A 8.99 8.99 0.0 0 1 51.88 19.16
  L 51.88 44.84
  Z
  M 48.9074 19.0087
  A 5.97 5.97 0.0 0 0 42.9270 13.0491
  L 18.9670 13.0909
  A 5.97 5.97 0.0 0 0 13.0074 19.0713
  L 13.0526 44.9713
  A 5.97 5.97 0.0 0 0 19.0330 50.9309
  L 42.9930 50.8891
  A 5.97 5.97 0.0 0 0 48.9526 44.9087
  L 48.9074 19.0087
  Z"
/>
<path fill="#000000" d="
  M 29.56 32.00
  Q 29.56 22.98 29.52 21.74
  A 1.41 1.41 0.0 0 0 27.72 20.43
  Q 26.48 20.78 26.47 22.27
  Q 26.38 30.58 26.45 41.76
  A 4.53 4.53 0.0 0 1 22.01 46.32
  L 21.90 46.32
  A 4.18 4.18 0.0 0 1 17.69 42.15
  L 17.67 19.90
  A 1.27 1.27 0.0 0 1 19.07 18.64
  L 19.13 18.64
  A 1.50 1.48 -87.3 0 1 20.47 20.13
  L 20.47 42.05
  A 1.48 1.48 0.0 0 0 22.02 43.53
  L 22.07 43.53
  A 1.57 1.57 0.0 0 0 23.58 41.96
  Q 23.59 25.48 23.61 22.76
  C 23.66 16.20 31.86 15.87 32.35 22.05
  Q 32.41 22.78 32.40 32.00
  Q 32.40 41.02 32.45 42.26
  A 1.41 1.41 0.0 0 0 34.24 43.57
  Q 35.48 43.22 35.49 41.73
  Q 35.58 33.42 35.51 22.24
  A 4.53 4.53 0.0 0 1 39.95 17.68
  L 40.06 17.68
  A 4.18 4.18 0.0 0 1 44.27 21.85
  L 44.29 44.10
  A 1.27 1.27 0.0 0 1 42.89 45.36
  L 42.83 45.36
  A 1.50 1.48 -87.3 0 1 41.49 43.87
  L 41.49 21.95
  A 1.48 1.48 0.0 0 0 39.94 20.47
  L 39.89 20.47
  A 1.57 1.57 0.0 0 0 38.38 22.04
  Q 38.37 38.52 38.35 41.24
  C 38.30 47.80 30.10 48.13 29.61 41.95
  Q 29.56 41.23 29.56 32.00
  Z"
/>
</svg>
