<?xml version="1.0" encoding="UTF-8" standalone="no"?>
<!DOCTYPE svg PUBLIC "-//W3C//DTD SVG 1.1//EN" "http://www.w3.org/Graphics/SVG/1.1/DTD/svg11.dtd">
<svg xmlns="http://www.w3.org/2000/svg" version="1.1" viewBox="0.00 0.00 60.00 60.00">
<path fill="#000000" d="
  M 51.83 44.92
  A 8.88 8.88 0.0 0 1 42.95 53.80
  L 19.13 53.80
  A 8.88 8.88 0.0 0 1 10.25 44.92
  L 10.25 19.08
  A 8.88 8.88 0.0 0 1 19.13 10.20
  L 42.95 10.20
  A 8.88 8.88 0.0 0 1 51.83 19.08
  L 51.83 44.92
  Z
  M 48.9173 18.9586
  A 5.96 5.96 0.0 0 0 42.9469 13.0090
  L 18.8469 13.0511
  A 5.96 5.96 0.0 0 0 12.8973 19.0215
  L 12.9427 45.0214
  A 5.96 5.96 0.0 0 0 18.9131 50.9710
  L 43.0131 50.9289
  A 5.96 5.96 0.0 0 0 48.9627 44.9585
  L 48.9173 18.9586
  Z"
/>
<path fill="#000000" d="
  M 30.97 43.45
  Q 33.32 43.45 33.28 40.79
  Q 33.10 30.60 33.39 22.35
  C 33.52 18.64 37.29 16.72 40.39 18.16
  C 42.87 19.31 43.37 21.50 43.36 24.32
  Q 43.33 35.12 43.35 43.95
  A 1.42 1.42 0.0 0 1 41.93 45.37
  L 41.44 45.37
  A 0.95 0.94 -90.0 0 1 40.50 44.42
  L 40.54 22.75
  A 2.24 2.24 0.0 0 0 38.34 20.50
  L 38.27 20.50
  A 2.21 2.20 -89.6 0 0 36.03 22.72
  Q 36.10 32.12 36.05 41.37
  C 36.04 44.19 33.69 46.36 30.97 46.36
  C 28.25 46.36 25.91 44.18 25.90 41.36
  Q 25.87 32.11 25.96 22.71
  A 2.21 2.20 89.7 0 0 23.72 20.49
  L 23.65 20.49
  A 2.24 2.24 0.0 0 0 21.45 22.73
  L 21.44 44.40
  A 0.95 0.94 -89.9 0 1 20.50 45.35
  L 20.01 45.35
  A 1.42 1.42 0.0 0 1 18.60 43.93
  Q 18.63 35.10 18.62 24.30
  C 18.62 21.48 19.12 19.29 21.61 18.14
  C 24.71 16.71 28.48 18.63 28.60 22.35
  Q 28.87 30.60 28.68 40.79
  Q 28.63 43.44 30.97 43.45
  Z"
/>
</svg>
