<?xml version="1.0" encoding="UTF-8" standalone="no"?>
<!DOCTYPE svg PUBLIC "-//W3C//DTD SVG 1.1//EN" "http://www.w3.org/Graphics/SVG/1.1/DTD/svg11.dtd">
<svg xmlns="http://www.w3.org/2000/svg" version="1.1" viewBox="0.00 0.00 60.00 60.00">
<path fill="#000000" d="
  M 51.93 44.95
  A 8.87 8.87 0.0 0 1 43.06 53.82
  L 18.94 53.82
  A 8.87 8.87 0.0 0 1 10.07 44.95
  L 10.07 19.05
  A 8.87 8.87 0.0 0 1 18.94 10.18
  L 43.06 10.18
  A 8.87 8.87 0.0 0 1 51.93 19.05
  L 51.93 44.95
  Z
  M 48.83 19.09
  A 5.90 5.90 0.0 0 0 42.93 13.19
  L 19.05 13.19
  A 5.90 5.90 0.0 0 0 13.15 19.09
  L 13.15 44.91
  A 5.90 5.90 0.0 0 0 19.05 50.81
  L 42.93 50.81
  A 5.90 5.90 0.0 0 0 48.83 44.91
  L 48.83 19.09
  Z"
/>
<path fill="#000000" d="
  M 32.49 32.00
  Q 32.50 37.63 32.43 40.68
  A 3.30 3.24 55.7 0 1 32.26 41.65
  Q 30.32 47.25 24.51 46.21
  C 20.67 45.53 19.48 42.05 19.53 38.32
  Q 19.63 29.53 19.53 20.11
  A 1.50 1.50 0.0 0 1 21.01 18.60
  L 21.08 18.59
  A 1.44 1.43 -0.4 0 1 22.54 20.02
  Q 22.55 38.08 22.55 38.75
  C 22.53 41.65 23.57 43.54 26.57 43.30
  C 30.57 42.97 29.52 36.56 29.51 31.99
  Q 29.50 26.36 29.57 23.31
  A 3.30 3.24 55.7 0 1 29.74 22.34
  Q 31.68 16.74 37.49 17.78
  C 41.33 18.46 42.52 21.94 42.47 25.67
  Q 42.37 34.46 42.47 43.88
  A 1.50 1.50 0.0 0 1 40.99 45.39
  L 40.92 45.40
  A 1.44 1.43 -0.4 0 1 39.46 43.97
  Q 39.45 25.91 39.45 25.24
  C 39.47 22.34 38.43 20.45 35.43 20.70
  C 31.43 21.02 32.48 27.43 32.49 32.00
  Z"
/>
</svg>
