<?xml version="1.0" encoding="UTF-8" standalone="no"?>
<!DOCTYPE svg PUBLIC "-//W3C//DTD SVG 1.1//EN" "http://www.w3.org/Graphics/SVG/1.1/DTD/svg11.dtd">
<svg xmlns="http://www.w3.org/2000/svg" version="1.1" viewBox="0.00 0.00 100.00 100.00">
<path fill="#000000" d="
  M 98.56 24.30
  Q 98.56 25.46 98.01 26.03
  Q 93.94 30.21 85.72 38.35
  A 2.99 2.98 44.8 0 1 81.52 38.36
  L 81.43 38.28
  A 2.94 2.94 0.0 0 1 81.40 34.11
  Q 86.15 29.32 90.89 24.64
  Q 90.94 24.59 90.94 24.29
  Q 90.94 24.01 90.89 23.96
  Q 86.15 19.27 81.41 14.48
  A 2.94 2.94 0.0 0 1 81.44 10.31
  L 81.53 10.23
  A 2.99 2.98 -44.7 0 1 85.73 10.24
  Q 93.95 18.39 98.01 22.58
  Q 98.56 23.15 98.56 24.30
  Z"
/>
<path fill="#000000" d="
  M 71.43 60.22
  A 2.98 2.98 0.0 0 1 68.44 63.23
  Q 40.70 63.15 36.50 63.23
  C 25.73 63.43 13.79 57.95 12.27 45.79
  Q 10.53 31.88 21.97 24.72
  Q 27.26 21.40 36.27 21.24
  Q 41.22 21.15 80.40 21.21
  A 3.01 3.00 0.1 0 1 83.40 24.21
  L 83.40 24.34
  A 3.03 3.02 -89.7 0 1 80.36 27.36
  Q 47.13 27.19 34.18 27.41
  C 12.97 27.78 12.34 56.66 34.76 57.04
  Q 42.80 57.18 68.42 57.11
  A 3.00 3.00 0.0 0 1 71.43 60.09
  L 71.43 60.22
  Z"
/>
<path fill="#000000" d="
  M 29.82 42.22
  A 2.96 2.96 0.0 0 1 32.79 39.22
  Q 60.37 39.27 64.55 39.18
  C 75.26 38.97 87.14 44.40 88.66 56.49
  Q 90.41 70.32 79.04 77.45
  Q 73.79 80.76 64.83 80.93
  Q 59.91 81.02 20.95 81.01
  A 2.99 2.98 0.0 0 1 17.97 78.03
  L 17.97 77.90
  A 3.01 3.00 -89.8 0 1 20.99 74.90
  Q 54.02 75.03 66.90 74.79
  C 87.99 74.40 88.58 45.68 66.29 45.33
  Q 58.29 45.20 32.82 45.30
  A 2.98 2.98 0.0 0 1 29.82 42.35
  L 29.82 42.22
  Z"
/>
<path fill="#000000" d="
  M 10.59 78.00
  Q 10.59 78.28 10.64 78.33
  Q 15.37 83.01 20.11 87.80
  A 2.94 2.94 0.0 0 1 20.08 91.96
  L 19.99 92.04
  A 2.99 2.98 -44.8 0 1 15.79 92.03
  Q 7.59 83.89 3.53 79.71
  Q 2.98 79.14 2.98 77.99
  Q 2.98 76.83 3.53 76.26
  Q 7.59 72.08 15.80 63.95
  A 2.99 2.98 44.8 0 1 20.00 63.94
  L 20.09 64.02
  A 2.94 2.94 0.0 0 1 20.12 68.19
  Q 15.37 72.97 10.64 77.65
  Q 10.59 77.69 10.59 78.00
  Z"
/>
</svg>
