<?xml version="1.0" encoding="UTF-8" standalone="no"?>
<!DOCTYPE svg PUBLIC "-//W3C//DTD SVG 1.1//EN" "http://www.w3.org/Graphics/SVG/1.1/DTD/svg11.dtd">
<svg xmlns="http://www.w3.org/2000/svg" version="1.1" viewBox="0.00 0.00 60.00 60.00">
<path fill="#000000" d="
  M 35.16 29.99
  C 38.36 35.60 44.48 38.48 50.76 38.13
  A 1.38 1.38 0.0 0 1 52.08 40.08
  C 44.68 55.84 22.76 57.64 13.91 42.08
  C 5.06 26.52 17.80 8.60 35.13 10.28
  A 1.38 1.38 0.0 0 1 36.13 12.42
  C 32.62 17.63 31.96 24.37 35.16 29.99
  Z
  M 16.54 40.50
  Q 20.08 46.76 26.41 48.72
  Q 39.41 52.76 47.80 41.68
  A 0.42 0.42 0.0 0 0 47.50 41.00
  C 41.29 40.50 35.64 36.90 32.56 31.44
  C 29.48 25.99 29.31 19.29 32.08 13.72
  A 0.42 0.42 0.0 0 0 31.65 13.11
  Q 17.83 14.58 14.58 27.80
  Q 13.00 34.24 16.54 40.50
  Z"
/>
</svg>
