<?xml version="1.0" encoding="UTF-8" standalone="no"?>
<!DOCTYPE svg PUBLIC "-//W3C//DTD SVG 1.1//EN" "http://www.w3.org/Graphics/SVG/1.1/DTD/svg11.dtd">
<svg xmlns="http://www.w3.org/2000/svg" version="1.1" viewBox="0.00 0.00 60.00 60.00">
<path fill="#000000" d="
  M 17.17 21.44
  Q 15.02 27.97 20.73 34.02
  A 1.43 1.36 -25.6 0 1 19.86 36.32
  Q 19.15 36.44 18.47 35.83
  C 14.20 31.98 12.49 25.98 14.29 20.49
  C 16.09 15.01 21.02 11.19 26.74 10.62
  Q 27.66 10.53 28.16 11.05
  A 1.43 1.36 61.9 0 1 27.50 13.42
  Q 19.31 14.91 17.17 21.44
  Z"
/>
<path fill="#000000" d="
  M 42.34 15.30
  C 47.83 17.09 51.66 22.02 52.23 27.75
  Q 52.33 28.66 51.81 29.16
  A 1.43 1.36 -28.1 0 1 49.44 28.50
  Q 47.94 20.31 41.40 18.18
  Q 34.86 16.04 28.81 21.76
  A 1.43 1.36 64.3 0 1 26.51 20.89
  Q 26.39 20.18 27.00 19.50
  C 30.85 15.22 36.86 13.50 42.34 15.30
  Z"
/>
<path fill="#000000" d="
  M 44.33 41.38
  Q 46.48 34.83 40.75 28.78
  A 1.43 1.36 -25.6 0 1 41.63 26.48
  Q 42.34 26.35 43.02 26.97
  C 47.30 30.82 49.01 36.83 47.21 42.32
  C 45.41 47.81 40.47 51.64 34.74 52.21
  Q 33.83 52.30 33.33 51.78
  A 1.43 1.36 61.9 0 1 33.99 49.41
  Q 42.19 47.92 44.33 41.38
  Z"
/>
<path fill="#000000" d="
  M 20.49 44.84
  Q 27.03 46.95 33.05 41.22
  A 1.43 1.36 64.2 0 1 35.36 42.08
  Q 35.48 42.79 34.87 43.47
  C 31.04 47.76 25.05 49.49 19.56 47.71
  C 14.07 45.94 10.23 41.02 9.64 35.31
  Q 9.54 34.40 10.06 33.89
  A 1.43 1.36 -28.3 0 1 12.43 34.54
  Q 13.95 42.72 20.49 44.84
  Z"
/>
</svg>
