<?xml version="1.0" encoding="UTF-8" standalone="no"?>
<!DOCTYPE svg PUBLIC "-//W3C//DTD SVG 1.1//EN" "http://www.w3.org/Graphics/SVG/1.1/DTD/svg11.dtd">
<svg xmlns="http://www.w3.org/2000/svg" version="1.1" viewBox="0.00 0.00 438.00 439.00">
<path fill="#000000" d="
  M 97.77 384.68
  Q 98.12 384.74 101.84 385.29
  C 111.41 386.72 116.43 397.10 113.72 405.78
  C 111.45 413.04 104.78 416.85 97.25 416.80
  Q 84.13 416.72 19.73 416.77
  C 5.54 416.78 -2.62 400.78 7.44 389.90
  Q 12.15 384.81 19.78 384.79
  Q 40.47 384.72 61.67 384.76
  A 0.83 0.82 12.3 0 0 62.42 384.28
  L 79.33 347.13
  A 0.41 0.41 0.0 0 0 79.17 346.60
  Q 68.44 340.22 70.66 328.47
  C 72.51 318.65 83.22 313.95 92.08 317.57
  A 0.70 0.69 -66.5 0 0 92.98 317.21
  L 172.44 142.67
  A 1.30 1.29 -55.5 0 0 172.18 141.22
  Q 166.43 135.44 167.43 127.74
  C 168.70 118.03 176.90 112.87 186.41 114.10
  A 0.77 0.77 0.0 0 0 187.18 113.72
  Q 201.08 89.61 219.63 69.39
  C 232.92 54.91 248.47 42.62 266.37 34.42
  Q 294.43 21.57 326.75 21.38
  Q 354.80 21.22 380.18 33.07
  Q 386.59 36.06 395.12 42.41
  Q 413.20 55.88 422.61 75.61
  Q 429.93 90.95 431.83 107.63
  C 434.33 129.58 435.12 153.39 431.04 175.30
  Q 429.14 185.55 424.82 195.84
  Q 421.93 202.71 417.12 209.72
  C 409.71 220.51 398.43 228.44 386.23 232.61
  A 0.38 0.38 0.0 0 1 385.73 232.25
  L 385.73 197.72
  A 1.38 1.36 -21.1 0 1 386.19 196.70
  C 392.75 190.83 396.17 183.46 398.54 174.54
  C 400.78 166.10 402.20 154.66 402.20 145.38
  Q 402.20 121.79 399.12 105.31
  Q 394.08 78.33 370.85 64.42
  C 344.30 48.52 306.92 51.11 280.09 63.23
  C 266.69 69.28 254.23 78.88 243.65 90.33
  Q 227.86 107.42 216.04 127.50
  A 0.64 0.64 0.0 0 0 216.24 128.36
  C 224.29 133.64 226.10 143.31 220.65 151.12
  Q 217.09 156.22 209.55 157.49
  Q 205.98 158.09 201.82 156.43
  A 0.64 0.63 -67.0 0 0 201.01 156.76
  L 121.49 331.46
  A 0.72 0.72 0.0 0 0 121.71 332.34
  C 129.64 338.29 131.12 349.25 123.92 356.45
  Q 117.54 362.83 108.90 360.55
  A 0.71 0.70 -70.0 0 0 108.07 360.94
  L 97.50 384.17
  A 0.37 0.36 -73.1 0 0 97.77 384.68
  Z"
/>
<path fill="#000000" d="
  M 285.07 416.78
  Q 224.19 416.81 210.02 416.71
  Q 208.52 416.70 206.21 415.88
  C 199.25 413.43 194.93 404.46 194.38 397.69
  A 7.48 7.21 -43.9 0 1 194.44 396.07
  Q 205.98 322.25 209.64 299.63
  Q 210.42 294.79 215.06 278.77
  Q 220.33 260.61 231.45 241.43
  C 250.44 208.67 282.22 185.59 319.52 178.78
  Q 326.13 177.58 335.47 177.61
  C 345.29 177.65 355.29 177.57 364.22 177.68
  C 367.13 177.72 369.44 177.25 369.62 180.45
  Q 369.76 182.94 369.76 189.25
  Q 369.75 306.37 369.75 310.82
  A 0.54 0.54 0.0 0 1 368.99 311.32
  Q 351.54 303.76 333.69 305.53
  C 293.80 309.46 265.40 346.95 272.50 386.27
  Q 275.34 402.01 283.52 413.25
  Q 284.88 415.11 285.41 416.23
  A 0.39 0.38 77.2 0 1 285.07 416.78
  Z"
/>
<path fill="#000000" d="
  M 393.78 374.35
  A 53.21 53.21 0.0 0 1 340.57 427.56
  A 53.21 53.21 0.0 0 1 287.36 374.35
  A 53.21 53.21 0.0 0 1 340.57 321.14
  A 53.21 53.21 0.0 0 1 393.78 374.35
  Z
  M 367.26 374.39
  A 26.66 26.66 0.0 0 0 340.60 347.73
  A 26.66 26.66 0.0 0 0 313.94 374.39
  A 26.66 26.66 0.0 0 0 340.60 401.05
  A 26.66 26.66 0.0 0 0 367.26 374.39
  Z"
/>
</svg>
