<?xml version="1.0" encoding="UTF-8" standalone="no"?>
<!DOCTYPE svg PUBLIC "-//W3C//DTD SVG 1.1//EN" "http://www.w3.org/Graphics/SVG/1.1/DTD/svg11.dtd">
<svg xmlns="http://www.w3.org/2000/svg" version="1.1" viewBox="0.00 0.00 60.00 60.00">
<path fill="#000000" d="
  M 31.07 10.58
  C 35.47 10.59 42.08 19.66 44.50 23.56
  C 49.21 31.14 49.36 40.78 42.54 47.26
  Q 37.72 51.84 30.91 51.82
  Q 24.11 51.79 19.33 47.17
  C 12.55 40.64 12.78 31.00 17.54 23.46
  C 20.00 19.57 26.67 10.56 31.07 10.58
  Z
  M 39.98 21.70
  L 32.69 14.40
  A 2.45 2.45 0.0 0 0 29.38 14.26
  Q 24.29 18.55 20.50 24.56
  A 0.69 0.69 0.0 0 0 20.86 25.58
  C 25.90 27.31 29.49 26.39 34.45 24.15
  Q 37.16 22.93 39.68 22.60
  A 0.53 0.53 0.0 0 0 39.98 21.70
  Z
  M 18.31 28.50
  C 15.84 35.76 17.49 43.81 24.48 47.28
  C 31.99 51.01 41.42 47.62 44.08 39.51
  Q 46.14 33.23 42.57 26.22
  A 1.18 1.17 76.2 0 0 41.53 25.59
  C 37.10 25.57 33.80 28.35 29.33 29.24
  Q 24.23 30.27 19.14 28.13
  A 0.62 0.62 0.0 0 0 18.31 28.50
  Z"
/>
</svg>
