<?xml version="1.0" encoding="UTF-8" standalone="no"?>
<!DOCTYPE svg PUBLIC "-//W3C//DTD SVG 1.1//EN" "http://www.w3.org/Graphics/SVG/1.1/DTD/svg11.dtd">
<svg xmlns="http://www.w3.org/2000/svg" version="1.1" viewBox="0.00 0.00 60.00 60.00">
<path fill="#000000" d="
  M 31.08 10.56
  C 36.22 10.59 44.07 22.38 45.67 25.94
  Q 52.12 40.30 40.27 49.08
  Q 36.57 51.82 30.91 51.80
  Q 25.25 51.77 21.58 49.00
  Q 9.80 40.12 16.37 25.82
  C 18.00 22.27 25.95 10.54 31.08 10.56
  Z
  M 44.57 30.80
  Q 40.98 21.24 32.41 14.10
  A 2.18 2.17 44.9 0 0 29.62 14.10
  C 24.42 18.46 18.79 25.14 17.42 31.98
  A 0.84 0.83 22.4 0 0 17.78 32.84
  Q 22.88 36.16 28.65 35.27
  A 7.36 6.13 6.8 0 0 29.65 35.07
  Q 30.27 34.90 33.67 33.31
  C 37.07 31.72 40.26 31.33 44.04 31.53
  A 0.54 0.54 0.0 0 0 44.57 30.80
  Z
  M 17.17 36.91
  C 20.58 53.94 44.15 51.96 44.87 35.05
  A 0.39 0.38 3.8 0 0 44.51 34.65
  C 41.27 34.38 38.43 34.45 35.35 35.88
  C 33.58 36.70 31.48 37.85 29.28 38.22
  Q 24.75 38.98 20.44 37.55
  C 19.48 37.23 18.70 36.56 17.93 36.27
  A 0.57 0.57 0.0 0 0 17.17 36.91
  Z"
/>
</svg>
