<?xml version="1.0" encoding="UTF-8" standalone="no"?>
<!DOCTYPE svg PUBLIC "-//W3C//DTD SVG 1.1//EN" "http://www.w3.org/Graphics/SVG/1.1/DTD/svg11.dtd">
<svg xmlns="http://www.w3.org/2000/svg" version="1.1" viewBox="0.00 0.00 60.00 60.00">
<path fill="#000000" d="
  M 31.07 10.90
  C 34.23 10.90 36.97 14.31 38.96 16.48
  C 43.96 21.92 48.10 28.41 47.73 35.61
  C 47.28 44.53 40.33 51.63 30.98 51.61
  C 21.63 51.58 14.72 44.46 14.30 35.53
  C 13.97 28.33 18.14 21.86 23.17 16.44
  C 25.17 14.29 27.92 10.89 31.07 10.90
  Z
  M 17.95 38.25
  C 22.89 41.01 27.55 41.20 32.52 38.97
  C 36.37 37.24 39.68 36.14 43.70 36.73
  A 1.15 1.15 0.0 0 0 45.01 35.64
  C 45.30 27.36 38.65 19.19 32.68 14.03
  A 2.45 2.44 -44.5 0 0 29.51 14.01
  C 22.98 19.47 16.17 27.98 17.04 36.86
  A 1.83 1.82 -78.4 0 0 17.95 38.25
  Z
  M 19.01 42.36
  Q 20.15 44.63 22.76 46.33
  C 30.97 51.68 39.72 48.46 44.10 40.24
  A 0.53 0.53 0.0 0 0 43.73 39.47
  C 40.70 38.91 37.36 39.64 34.28 41.19
  C 29.49 43.60 24.41 44.19 19.48 41.88
  A 0.36 0.35 -0.8 0 0 19.01 42.36
  Z"
/>
</svg>
